<svg id="Layer_2" data-name="Layer 2" xmlns="http://www.w3.org/2000/svg" viewBox="0 0 428.78 162.62"><defs><style>.cls-1{fill:#00a504;}.cls-2{fill:none;stroke:#be13e8;stroke-miterlimit:10;stroke-width:0.5px;}</style></defs><path class="cls-1" d="M336.35,405v50.35H314V430.31a25.3,25.3,0,0,0-25.3-25.3H286V528.09h2.67a25.29,25.29,0,0,0,25.3-25.3V472.15h22.38v30.64a25.3,25.3,0,0,0,25.3,25.3h2.68V430.31A25.3,25.3,0,0,0,339,405Z" transform="translate(-286 -405.01)"/><path class="cls-1" d="M433.46,447a18.78,18.78,0,0,0-18.78,18.79v29.53c0,5.35-4,10.18-9.35,10.42a9.8,9.8,0,0,1-10.23-9.79V447.07a.1.1,0,0,0-.1-.1h-3.5a18.78,18.78,0,0,0-18.78,18.79v39.75a22.58,22.58,0,0,0,22.59,22.58h4.26a18.86,18.86,0,0,0,10.49-3.18l4.47-3a.09.09,0,0,1,.15.08v6a.09.09,0,0,0,.09.09h5.38a16.9,16.9,0,0,0,16.91-16.9V447.07a.1.1,0,0,0-.1-.1Z" transform="translate(-286 -405.01)"/><path class="cls-1" d="M449,528.09a18.78,18.78,0,0,0,18.79-18.78V479.78c0-5.35,4-10.18,9.35-10.42a9.79,9.79,0,0,1,10.23,9.78V528a.09.09,0,0,0,.09.09H491a18.78,18.78,0,0,0,18.79-18.78V469.56A22.59,22.59,0,0,0,487.2,447h-4.26a18.89,18.89,0,0,0-10.49,3.18l-4.48,3a.09.09,0,0,1-.14-.08v-6a.09.09,0,0,0-.1-.1h-5.38a16.91,16.91,0,0,0-16.9,16.91V528a.09.09,0,0,0,.09.09Z" transform="translate(-286 -405.01)"/><path class="cls-1" d="M644.06,453.17v21.77h-5.4a7.87,7.87,0,0,1-5.69-2.56,9.57,9.57,0,0,0-2.9-2.08,9.81,9.81,0,0,0-4.64-.95c-5.34.25-9.34,5.09-9.34,10.43V509.3a18.8,18.8,0,0,1-18.8,18.79h-3.5a.11.11,0,0,1-.08-.08V463.87A16.9,16.9,0,0,1,610.6,447H616a.09.09,0,0,1,.09.09v6a.09.09,0,0,0,.14.08l4.47-3a18.54,18.54,0,0,1,9.37-3.13,7.07,7.07,0,0,1,1.12-.06h4.26a21.77,21.77,0,0,1,3.81.33A5.9,5.9,0,0,1,644.06,453.17Z" transform="translate(-286 -405.01)"/><path class="cls-2" d="M631.19,447a7.07,7.07,0,0,0-1.12.06V447Z" transform="translate(-286 -405.01)"/><path class="cls-1" d="M572.73,448.37c-19.58,5.59-58.75-8.39-56,28,1.93,25.11,28.16,14,26.06,23.88-.88,4.1-13.9,2.66-14.87,15.29-1.4,18.18,25.18,8.39,33.57,19.58,0,8.39,5.59,14-14,14-8.39,0-11.19-5.59-9.79-18.18,0,0-15.38-1.4-19.58,14.66,0,0-7.17,19,22.38,21.71,46.16,4.19,44.76-28,44.76-28,1.4-23.77-29.38-23.77-29-31.23-.43-9.33,26.15.46,24.75-37.3-14,19.58-42,16.78-42,8.39C539.16,451.17,575.53,481.94,572.73,448.37Z" transform="translate(-286 -405.01)"/><path class="cls-1" d="M661.14,447c-12.88,9.79-14.51,21.7-10.09,35,5.6,16.78,16.79,19.58,16.79,39.16,0,16.1-11.19,25.18-12.59,35,23.78,4.19,26.58-4.2,40.56-32.17,0,0,36.37-64.34,8.39-78.33-8.39,14-16.78,44.76-22.37,44.76C681.68,492.6,672.66,473.35,661.14,447Z" transform="translate(-286 -405.01)"/><rect class="cls-1" x="83.92" y="25.18" width="212.6" height="5.59"/></svg>